<svg width="89" height="93" viewBox="0 0 89 93" fill="none" xmlns="http://www.w3.org/2000/svg">
<g clip-path="url(#clip0_14_5866)">
<path d="M18.1973 8.29299C18.4499 8.04753 18.873 7.70856 19.3372 7.41635C20.0011 6.99556 20.5006 6.83192 20.9824 6.89036C21.376 6.91958 21.7286 7.11829 21.993 7.52154C22.3103 8.01246 22.2633 8.65533 21.8461 9.19885L21.8579 9.21639C22.4219 9.02352 23.2504 9.06443 23.744 9.81835C24.026 10.2567 24.0671 10.7008 23.9673 11.1158C23.8204 11.671 23.3385 12.1911 22.5042 12.723C22.0459 13.0152 21.6757 13.208 21.4348 13.3191L18.1973 8.29883V8.29299ZM20.2068 9.95861L20.8061 9.57289C21.5053 9.12288 21.6816 8.49754 21.3643 8.00662C20.9765 7.4105 20.3713 7.4631 19.7015 7.89558C19.3959 8.08844 19.2373 8.22286 19.1433 8.31637L20.2009 9.95861H20.2068ZM21.7874 12.4015C21.9342 12.3431 22.1281 12.2262 22.3632 12.0742C23.0506 11.6359 23.5207 10.9814 23.0389 10.2391C22.5865 9.54366 21.805 9.63717 21.0823 10.0989L20.5358 10.4495L21.7932 12.3957L21.7874 12.4015Z" fill="white"/>
<path d="M27.898 6.53977L25.7475 7.5333L26.6759 9.51451L29.0732 8.4041L29.3493 9.00021L26.2411 10.4379L23.6675 4.93844L26.6524 3.55334L26.9285 4.14946L24.6546 5.20143L25.4655 6.93718L27.616 5.94365L27.8921 6.53393L27.898 6.53977Z" fill="white"/>
<path d="M30.5774 7.52741C30.9769 7.62676 31.5233 7.64429 32.0463 7.48065C32.816 7.24104 33.1333 6.69752 32.9512 6.11309C32.7808 5.56957 32.3695 5.35918 31.4881 5.30658C30.4305 5.27151 29.6901 4.96761 29.4316 4.14941C29.1437 3.24939 29.6842 2.34353 30.8124 1.98703C31.4058 1.80001 31.8818 1.80001 32.1873 1.8643L32.1756 2.53639C31.9523 2.49548 31.5116 2.44288 30.9828 2.60652C30.1896 2.85783 30.0368 3.42472 30.1602 3.81629C30.3306 4.35981 30.7713 4.51176 31.6702 4.5702C32.7749 4.64033 33.4271 4.95592 33.6974 5.80334C33.9794 6.69752 33.5622 7.67936 32.1873 8.11183C31.6232 8.28716 30.9593 8.31638 30.5832 8.21119L30.5715 7.52741H30.5774Z" fill="white"/>
<path d="M36.1302 1.46111L34.3028 1.78254L34.1853 1.12798L38.6332 0.344849L38.7508 0.999408L36.9175 1.32084L37.8635 6.63914L37.082 6.7794L36.1361 1.46111H36.1302Z" fill="white"/>
<path d="M44.6851 0.695469L42.8284 0.666248L42.8401 0L47.3527 0.0701313L47.3409 0.736379L45.4783 0.707158L45.3902 6.10727L44.597 6.09558L44.6851 0.695469Z" fill="white"/>
<path d="M49.2213 4.43575L48.3282 6.24163L47.5232 6.13059L50.4141 0.403198L51.3542 0.531772L52.5763 6.82606L51.742 6.70917L51.3601 4.72796L49.2154 4.42991L49.2213 4.43575ZM51.2896 4.10263L50.937 2.2909C50.8547 1.8818 50.8195 1.51361 50.7784 1.15127H50.7607C50.6197 1.49023 50.4728 1.84673 50.3024 2.19739L49.4681 3.85717L51.2896 4.10847V4.10263Z" fill="white"/>
<path d="M54.2862 6.28262C54.5682 6.58652 55.0089 6.90211 55.5319 7.05406C56.3075 7.27615 56.8774 7.00147 57.0478 6.41119C57.2065 5.86768 56.9832 5.46442 56.2781 4.93259C55.4202 4.31894 54.9737 3.65854 55.2087 2.8345C55.4731 1.92863 56.425 1.46693 57.5649 1.79421C58.1642 1.9637 58.5579 2.23253 58.7753 2.45462L58.3875 3.00982C58.2288 2.85203 57.888 2.56566 57.3533 2.41371C56.5542 2.18578 56.1136 2.5715 55.996 2.96891C55.8374 3.51243 56.1194 3.88647 56.8363 4.42998C57.7176 5.09623 58.0819 5.71572 57.8352 6.57483C57.5766 7.47485 56.6776 8.05928 55.2968 7.66187C54.7328 7.49823 54.1628 7.15926 53.9102 6.8612L54.2862 6.28262Z" fill="white"/>
<path d="M62.2829 4.28974L60.5848 3.55336L60.8551 2.94556L64.9916 4.74559L64.7214 5.3534L63.0115 4.61118L60.8375 9.56128L60.1089 9.24569L62.2829 4.29558V4.28974Z" fill="white"/>
<path d="M67.9355 10.1515L65.9025 8.93591L64.7685 10.8119L67.0306 12.1678L66.6898 12.7288L63.752 10.9697L66.8955 5.76831L69.7158 7.45731L69.375 8.01836L67.2245 6.73262L66.2315 8.37486L68.2645 9.59047L67.9296 10.1457L67.9355 10.1515Z" fill="white"/>
<path d="M23.2739 83.9238L21.5288 82.6672L20.3537 84.2803L22.2986 85.6829L21.946 86.168L19.4194 84.3504L22.6687 79.8795L25.0954 81.627L24.7429 82.112L22.8979 80.7854L21.8696 82.1997L23.6147 83.4562L23.268 83.9354L23.2739 83.9238Z" fill="white"/>
<path d="M25.4655 86.2381L24.1434 87.5063L23.4854 87.1615L27.7394 83.1523L28.5032 83.5556L27.5925 89.3122L26.9168 88.9557L27.2047 87.144L25.4655 86.2323V86.2381ZM27.334 86.5946L27.5984 84.9407C27.6571 84.5667 27.7394 84.2394 27.8158 83.9179H27.804C27.5749 84.1634 27.3398 84.4147 27.0872 84.666L25.8592 85.8232L27.3398 86.6005L27.334 86.5946Z" fill="white"/>
<path d="M31.6704 85.6362L30.0898 85.0459L30.3013 84.479L34.1441 85.9167L33.9325 86.4836L32.3461 85.8875L30.6069 90.4811L29.9312 90.2298L31.6704 85.6362Z" fill="white"/>
<path d="M40.2314 92.7603C40.1021 92.585 39.9788 92.4096 39.8025 92.1525C39.2619 92.5207 38.7096 92.6259 38.1044 92.5324C37.0409 92.3746 36.5297 91.5681 36.6531 90.7499C36.7647 90.0076 37.2877 89.5635 37.9692 89.318V89.2946C37.7401 88.8972 37.6343 88.4764 37.6931 88.0849C37.793 87.4186 38.3747 86.8167 39.2854 86.9511C39.967 87.0563 40.4312 87.5881 40.3196 88.2894C40.2314 88.8622 39.8319 89.2654 38.8976 89.5635V89.5868C39.2737 90.1888 39.7085 90.8667 39.9964 91.3051C40.3078 90.9603 40.5546 90.4635 40.7661 89.7914L41.4183 89.8907C41.1422 90.7265 40.8014 91.3694 40.3254 91.7843C40.5722 92.135 40.8072 92.4856 41.0834 92.883L40.2373 92.7545L40.2314 92.7603ZM39.5087 91.6966C39.2384 91.2934 38.7272 90.5395 38.2219 89.7505C37.8987 89.8908 37.4346 90.1771 37.3464 90.7499C37.2524 91.3752 37.6402 91.9187 38.3042 92.0181C38.7742 92.0882 39.209 91.9362 39.5087 91.6966ZM38.3453 88.1199C38.2865 88.5057 38.4217 88.8329 38.6097 89.1602C39.209 88.9264 39.6145 88.6927 39.685 88.231C39.7378 87.8979 39.6027 87.5004 39.1561 87.4303C38.7037 87.3602 38.4099 87.6991 38.3453 88.1199Z" fill="white"/>
<path d="M48.5985 90.2648L46.448 90.3816L46.5596 92.3687L48.9569 92.2343L48.9922 92.8304L45.8781 92.9999L45.5725 87.4946L48.5633 87.3309L48.5985 87.9271L46.3246 88.0556L46.4245 89.7972L48.575 89.6803L48.6103 90.2706L48.5985 90.2648Z" fill="white"/>
<path d="M51.2485 92.5675L50.1379 87.1615L50.9018 87.0037L53.2051 89.3824C53.7398 89.9317 54.1687 90.4402 54.5389 90.9369L54.5506 90.9253C54.3391 90.2181 54.1863 89.5635 54.0101 88.722L53.5459 86.4602L54.204 86.3258L55.3145 91.7318L54.6035 91.8779L52.312 89.4876C51.8067 88.9616 51.319 88.4181 50.9253 87.8921L50.9018 87.9038C51.0839 88.5759 51.2308 89.2246 51.4189 90.1187L51.8948 92.4272L51.2367 92.5616L51.2485 92.5675Z" fill="white"/>
<path d="M57.0066 85.4141L57.6823 85.1803L58.9045 88.6635C59.3922 90.0486 58.8575 90.709 57.9526 91.0187C57.7058 91.1064 57.3827 91.1532 57.1888 91.1473L57.0947 90.5629C57.2534 90.5629 57.4708 90.5453 57.6941 90.4694C58.2993 90.259 58.5637 89.8674 58.2053 88.8447L57.0007 85.4141H57.0066Z" fill="white"/>
<path d="M64.7862 84.8355C65.6558 86.5245 65.08 87.9447 63.8226 88.5876C62.5182 89.248 61.0845 88.7103 60.3265 87.22C59.5274 85.6596 59.9798 84.1459 61.296 83.4797C62.6416 82.7959 64.04 83.3803 64.7921 84.8355H64.7862ZM60.9963 86.8576C61.5369 87.9096 62.5887 88.5583 63.5934 88.0499C64.6041 87.5356 64.6981 86.32 64.1281 85.2096C63.6287 84.2336 62.5887 83.4738 61.531 84.0115C60.4793 84.5492 60.444 85.7823 61.0022 86.8635L60.9963 86.8576Z" fill="white"/>
<path d="M68.7993 85.5017L67.4303 83.5965L64.1458 82.0302L64.8097 81.5568L66.3374 82.34C66.7546 82.5562 67.0836 82.7315 67.4538 82.9478L67.4656 82.9361C67.3833 82.5504 67.3245 82.153 67.254 81.6854L67.0131 79.9847L67.6771 79.5114L68.0179 83.164L69.3928 85.0751L68.8052 85.4959L68.7993 85.5017Z" fill="white"/>
<path d="M32.1404 15.9373C33.8737 15.3762 35.7657 15.3704 37.4991 15.9373C35.7657 16.5042 33.8737 16.4983 32.1404 15.9373Z" fill="white"/>
<path d="M34.8198 18.5965C34.2557 16.8724 34.2498 14.9905 34.8198 13.2665C35.3897 14.9905 35.3839 16.8724 34.8198 18.5965Z" fill="white"/>
<path d="M63.887 66.3618C64.9681 66.0228 66.0669 66.017 67.148 66.3618C66.0669 66.7066 64.9681 66.7007 63.887 66.3618Z" fill="white"/>
<path d="M65.5205 67.9806C65.1797 66.9053 65.1738 65.8124 65.5205 64.7371C65.8672 65.8124 65.8613 66.9053 65.5205 67.9806Z" fill="white"/>
<path d="M29.4609 68.1034C31.1943 67.5424 33.0863 67.5365 34.8196 68.1034C33.0863 68.6703 31.1943 68.6645 29.4609 68.1034Z" fill="white"/>
<path d="M32.1403 70.7683C31.5763 69.0443 31.5704 67.1624 32.1403 65.4384C32.7103 67.1624 32.7044 69.0443 32.1403 70.7683Z" fill="white"/>
<path d="M14.0723 14.7042C5.90504 22.5998 0.82251 33.6338 0.82251 45.8542C0.82251 59.4013 7.05668 71.4989 16.8281 79.4647" stroke="white" stroke-width="2.81" stroke-miterlimit="10"/>
<path d="M72.1719 79.4647C81.9432 71.4989 88.1774 59.4013 88.1774 45.8542C88.1774 33.6338 83.0949 22.5998 74.9276 14.7042" stroke="white" stroke-width="2.81" stroke-miterlimit="10"/>
<path d="M6.66309 56.4032V55.6259C6.66309 55.3161 6.69834 55.0122 6.76885 54.7142C6.83936 54.422 6.94512 54.1707 7.08026 53.9603C7.22128 53.7499 7.42693 53.6505 7.70897 53.6505C7.99101 53.6505 8.29067 53.9018 8.62559 54.4044C8.95463 54.907 9.38356 55.4623 9.9065 56.0701C10.4294 56.6779 11.0817 57.2331 11.869 57.7357C12.6505 58.2383 13.6376 58.4896 14.8245 58.4896C15.7294 58.4896 16.8105 58.3493 18.0679 58.0746C19.3253 57.8 20.6239 57.4084 21.9635 56.9058C23.3032 56.4032 24.6311 55.7954 25.9356 55.0824C27.2458 54.3752 28.421 53.5921 29.4669 52.7447C30.5128 51.8972 31.3589 50.9914 32.0052 50.0388C32.6515 49.0861 32.9747 48.0868 32.9747 47.0465C31.7173 47.0465 30.5186 47.1868 29.367 47.4614C28.2153 47.742 26.9462 47.8764 25.5478 47.8764C25.5478 47.5666 25.6006 47.2627 25.7064 46.9647C25.8122 46.6725 26.0354 46.4504 26.388 46.316L35.8538 42.3126L37.264 40.91C37.405 40.5652 37.6635 39.9749 38.0455 39.1392C38.4274 38.3093 38.8387 37.4327 39.2735 36.5151C39.7083 35.5976 40.1196 34.7209 40.5015 33.891C40.8835 33.0611 41.1655 32.4884 41.3359 32.1728C41.3359 32.1377 41.4064 32.015 41.5474 31.8105C41.6884 31.6001 41.8353 31.3838 41.994 31.1617C42.1526 30.9397 42.2878 30.7293 42.4112 30.5364C42.5345 30.3435 42.6109 30.215 42.6462 30.1448C42.6462 29.8702 42.6286 29.6247 42.5933 29.4143C42.558 29.2039 42.3465 28.9818 41.9646 28.7364C38.6507 29.952 35.4601 31.0682 32.393 32.091C29.3259 33.1137 26.2058 34.2475 23.0329 35.4982C22.9977 35.4982 22.9389 35.5099 22.8508 35.5216C22.7626 35.5391 22.6863 35.545 22.6158 35.545C22.3337 35.545 22.0987 35.4398 21.9107 35.2352C21.7168 35.0248 21.6227 34.7852 21.6227 34.5047C21.6227 34.1599 22.2044 33.628 23.3737 32.9209C24.543 32.2079 26.0119 31.4481 27.7923 30.6299C29.5726 29.8176 31.5293 28.976 33.6739 28.1052C35.8186 27.2402 37.8633 26.4513 39.82 25.7383C41.7707 25.0253 43.4982 24.4467 44.9965 23.9967C46.4948 23.5467 47.5054 23.3187 48.0284 23.3187C48.7628 23.3187 49.4033 23.4941 49.9615 23.8389C50.5197 24.1837 50.7959 24.809 50.7959 25.709C50.7959 25.9896 50.7195 26.2116 50.5608 26.387C50.4022 26.5623 50.2142 26.7084 49.985 26.8311C49.7558 26.9539 49.5326 27.0591 49.3034 27.1409C49.0743 27.2285 48.8921 27.3221 48.757 27.4273C48.5454 27.6026 48.2693 27.8597 47.9226 28.2045C47.5759 28.5494 47.2175 28.9 46.8532 29.2448C46.4889 29.5896 46.1658 29.9111 45.8837 30.2091C45.6017 30.5013 45.4489 30.6884 45.4137 30.7526C45.1022 31.2728 44.7086 31.9916 44.2385 32.9092C43.7685 33.8267 43.3219 34.756 42.9047 35.6911C42.4875 36.6261 42.1232 37.4677 41.806 38.2158C41.4945 38.9639 41.3359 39.4022 41.3359 39.5424V40.5301C41.4769 40.5301 41.7296 40.4892 42.0939 40.4015C42.4582 40.3139 42.8342 40.2554 43.2161 40.2204C43.5981 40.1853 43.9389 40.2379 44.2385 40.3782C44.5323 40.5184 44.6851 40.8106 44.6851 41.2607C44.6851 41.6756 44.4559 42.0263 44.0035 42.3009C43.8272 42.3711 43.5217 42.4996 43.0869 42.6925C42.6521 42.8854 42.182 43.0841 41.6767 43.2886C41.1714 43.499 40.6896 43.6977 40.2371 43.8847C39.7847 44.0776 39.4674 44.2062 39.297 44.2763C37.7634 46.7718 36.1535 49.0628 34.4613 51.1433C32.7691 53.2239 30.9064 55.0006 28.8676 56.4733C26.8287 57.9461 24.5606 59.0974 22.0693 59.9331C19.578 60.763 16.7988 61.1838 13.7316 61.1838C13.0677 61.1838 12.3273 61.0961 11.5106 60.9208C10.688 60.7455 9.92413 60.4591 9.20729 60.0617C8.49044 59.6643 7.89112 59.1617 7.40343 58.5539C6.91574 57.9461 6.66896 57.2272 6.66896 56.3973L6.66309 56.4032Z" fill="white"/>
<path d="M54.9853 61.1838C54.3566 61.0435 53.6573 60.9675 52.8935 60.95C52.1238 60.9325 51.3423 60.8916 50.5432 60.8214C49.7382 60.7513 48.9626 60.6403 48.2164 60.4825C47.4643 60.3247 46.8238 60.0675 46.2833 59.7052C45.7427 59.3428 45.3314 58.8461 45.0552 58.2207C44.7732 57.5954 44.7086 56.783 44.8437 55.7778C44.8085 55.6726 44.7203 55.4155 44.5852 55.0005C44.4442 54.5856 44.2973 54.1531 44.1386 53.7031C43.98 53.2531 43.8331 52.8382 43.6921 52.4524C43.5511 52.0726 43.4805 51.8271 43.4805 51.7219C43.4453 51.4823 43.4982 51.2368 43.6392 50.9914C43.7802 50.7517 43.9506 50.5414 44.1621 50.366C44.3737 50.1907 44.5969 50.0446 44.8437 49.9219C45.0846 49.7991 45.3138 49.7232 45.5253 49.6881C45.5606 49.7933 45.6193 50.0271 45.7075 50.3894C45.7956 50.7518 45.919 51.1375 46.0718 51.5349C46.2304 51.9323 46.4125 52.3005 46.6182 52.6278C46.8297 52.955 47.0354 53.1245 47.2469 53.1245C47.3879 53.1245 47.5231 53.0544 47.6641 52.9141C47.8051 52.7739 48.0049 52.4641 48.2634 51.979C48.5219 51.494 48.8804 50.7985 49.3328 49.8985C49.7852 48.9985 50.3963 47.8004 51.1602 46.3101C51.924 44.8198 52.8935 42.9672 54.0628 40.7463C55.232 38.5255 56.6657 35.8781 58.3756 32.7864C58.687 32.2663 59.2569 31.6 60.0737 30.7818C60.8904 29.9695 61.854 29.1162 62.9528 28.2337C64.0516 27.3513 65.2385 26.4571 66.5076 25.5571C67.7827 24.657 69.0342 23.8388 70.274 23.1142C71.5079 22.3836 72.6713 21.7992 73.7524 21.3433C74.8336 20.8933 75.7208 20.6654 76.42 20.6654C76.6962 20.6654 77.0193 20.6771 77.3895 20.6888C77.7538 20.7063 77.9888 20.9226 78.0946 21.3375V21.7817C78.0946 22.0096 78.1005 22.2492 78.1181 22.5122C78.1357 22.7693 78.1416 23.0148 78.1416 23.2427V23.6869C78.1416 24.9726 77.9301 26.124 77.5129 27.1467C77.0957 28.1695 76.5375 29.1045 75.8383 29.9578C75.1391 30.8111 74.3282 31.6234 73.4057 32.4007C72.4833 33.178 71.5314 33.9845 70.556 34.8202C70.556 34.8553 70.5443 34.9079 70.5325 34.978C70.5149 35.0482 70.509 35.1183 70.509 35.1884C70.509 35.2235 70.7264 35.4923 71.1612 35.9949C71.596 36.4976 72.0661 37.1404 72.5714 37.9177C73.0767 38.695 73.5468 39.5833 73.9816 40.571C74.4164 41.5587 74.6338 42.5756 74.6338 43.6159C74.6338 45.8016 73.9992 47.9407 72.7242 50.0387C71.4491 52.1368 69.8509 54.0187 67.9119 55.6843C65.9729 57.3499 63.8576 58.6824 61.5602 59.6876C59.2569 60.6929 57.0653 61.1955 54.9735 61.1955L54.9853 61.1838ZM50.173 56.4032C50.173 56.8882 50.3669 57.2447 50.7489 57.4668C51.1308 57.6948 51.5656 57.8292 52.0591 57.8818C52.5468 57.9344 53.0463 57.9402 53.5516 57.9051C54.0569 57.8701 54.4153 57.8525 54.621 57.8525C56.8185 57.8525 58.8045 57.5311 60.5849 56.8882C62.3652 56.2454 63.934 55.3278 65.2913 54.1297C66.6486 52.9317 67.8297 51.5057 68.8227 49.84C69.8157 48.1744 70.6441 46.3218 71.3081 44.2763C71.3081 44.2062 71.314 44.0425 71.3316 43.7795C71.3492 43.5224 71.3551 43.3529 71.3551 43.2886C71.3551 41.9386 71.1553 40.8866 70.7558 40.1444C70.3562 39.3963 69.798 38.847 69.0812 38.4788C68.3644 38.1164 67.5006 37.8826 66.49 37.7775C65.4794 37.6723 64.363 37.5846 63.1408 37.5145C62.9645 37.4794 62.7119 37.2982 62.3828 36.9709C62.0538 36.6437 61.8658 36.3924 61.8364 36.217C61.7659 36.0417 61.8188 35.7846 61.995 35.4397C62.1713 35.0949 62.3241 34.8845 62.4651 34.8144C63.8577 34.7793 65.2913 34.4754 66.7544 33.9027C68.2175 33.33 69.5513 32.5585 70.7558 31.5884C71.9603 30.6182 72.9416 29.4727 73.7113 28.1578C74.4751 26.8428 74.8629 25.4168 74.8629 23.8914C73.5703 23.8914 72.2071 24.3356 70.7558 25.2181C69.3103 26.1006 67.9119 27.1759 66.5723 28.4441C65.2326 29.7123 64.0163 31.0565 62.9352 32.4767C61.854 33.8969 61.0197 35.1475 60.4262 36.2229C60.1794 36.7079 59.7916 37.456 59.2511 38.4612C58.7105 39.4664 58.0994 40.6119 57.4237 41.8918C56.7421 43.1776 56.037 44.5276 55.3084 45.9478C54.574 47.3679 53.8806 48.7238 53.2167 50.0037C52.5527 51.2894 51.9593 52.4466 51.4363 53.4869C50.9134 54.5272 50.5314 55.2869 50.2847 55.7778C50.2494 55.848 50.2259 55.9532 50.2083 56.0876C50.1907 56.2278 50.1848 56.333 50.1848 56.3973L50.173 56.4032Z" fill="white"/>
</g>
<defs>
<clipPath id="clip0_14_5866">
<rect width="89" height="93" fill="white"/>
</clipPath>
</defs>
</svg>
